<?xml version="1.0" encoding="UTF-8"?>
<!-- Generator: visioncortex VTracer 0.6.4 -->
<svg version="1.1" xmlns="http://www.w3.org/2000/svg" width="623" height="128" viewBox="0 0 623 128">
<path d="M0 0 C205.59 0 411.18 0 623 0 C623 42.24 623 84.48 623 128 C417.41 128 211.82 128 0 128 C0 85.76 0 43.52 0 0 Z " fill="none" transform="translate(0,0)"/>
<path d="M0 0 C13.2 0 26.4 0 40 0 C40 1.98 40 3.96 40 6 C41.98 6 43.96 6 46 6 C46 4.02 46 2.04 46 0 C52.6 0 59.2 0 66 0 C66 4.29 66 8.58 66 13 C52.8 13 39.6 13 26 13 C26 11.02 26 9.04 26 7 C24.35 7 22.7 7 21 7 C21 8.98 21 10.96 21 13 C14.07 13 7.14 13 0 13 C0 8.71 0 4.42 0 0 Z " fill="currentColor" transform="translate(132,51)"/>
<path d="M0 0 C17.82 0 35.64 0 54 0 C54 4.29 54 8.58 54 13 C36.18 13 18.36 13 0 13 C0 8.71 0 4.42 0 0 Z " fill="currentColor" transform="translate(328,79)"/>
<path d="M0 0 C15.51 0 31.02 0 47 0 C47 1.98 47 3.96 47 6 C49.31 6 51.62 6 54 6 C54 8.31 54 10.62 54 13 C34.2 13 14.4 13 -6 13 C-6 10.69 -6 8.38 -6 6 C-4.02 6 -2.04 6 0 6 C0 4.02 0 2.04 0 0 Z " fill="currentColor" transform="translate(269,37)"/>
<path d="M0 0 C15.51 0 31.02 0 47 0 C47 1.98 47 3.96 47 6 C48.98 6 50.96 6 53 6 C53 8.31 53 10.62 53 13 C33.53 13 14.06 13 -6 13 C-6 10.69 -6 8.38 -6 6 C-4.02 6 -2.04 6 0 6 C0 4.02 0 2.04 0 0 Z " fill="currentColor" transform="translate(73,37)"/>
<path d="M0 0 C6.6 0 13.2 0 20 0 C20 1.98 20 3.96 20 6 C26.27 6 32.54 6 39 6 C39 4.02 39 2.04 39 0 C45.93 0 52.86 0 60 0 C60 4.29 60 8.58 60 13 C40.2 13 20.4 13 0 13 C0 8.71 0 4.42 0 0 Z " fill="currentColor" transform="translate(263,65)"/>
<path d="M0 0 C17.49 0 34.98 0 53 0 C53 2.31 53 4.62 53 7 C51.02 7 49.04 7 47 7 C47 8.98 47 10.96 47 13 C31.49 13 15.98 13 0 13 C0 8.71 0 4.42 0 0 Z " fill="currentColor" transform="translate(204,79)"/>
<path d="M0 0 C17.49 0 34.98 0 53 0 C53 4.29 53 8.58 53 13 C37.49 13 21.98 13 6 13 C6 11.02 6 9.04 6 7 C4.02 7 2.04 7 0 7 C0 4.69 0 2.38 0 0 Z " fill="currentColor" transform="translate(8,79)"/>
<path d="M0 0 C6.6 0 13.2 0 20 0 C20 1.98 20 3.96 20 6 C26.27 6 32.54 6 39 6 C39 4.02 39 2.04 39 0 C45.6 0 52.2 0 59 0 C59 4.29 59 8.58 59 13 C39.53 13 20.06 13 0 13 C0 8.71 0 4.42 0 0 Z " fill="currentColor" transform="translate(67,65)"/>
<path d="M0 0 C17.49 0 34.98 0 53 0 C53 4.29 53 8.58 53 13 C37.82 13 22.64 13 7 13 C7 11.02 7 9.04 7 7 C4.69 7 2.38 7 0 7 C0 4.69 0 2.38 0 0 Z " fill="currentColor" transform="translate(387,79)"/>
<path d="M0 0 C6.93 0 13.86 0 21 0 C21 1.98 21 3.96 21 6 C24.96 6 28.92 6 33 6 C33 4.02 33 2.04 33 0 C39.6 0 46.2 0 53 0 C53 4.29 53 8.58 53 13 C35.51 13 18.02 13 0 13 C0 8.71 0 4.42 0 0 Z " fill="currentColor" transform="translate(459,51)"/>
<path d="M0 0 C17.49 0 34.98 0 53 0 C53 4.29 53 8.58 53 13 C46.4 13 39.8 13 33 13 C33 11.02 33 9.04 33 7 C29.04 7 25.08 7 21 7 C21 8.98 21 10.96 21 13 C14.07 13 7.14 13 0 13 C0 8.71 0 4.42 0 0 Z " fill="currentColor" transform="translate(459,37)"/>
<path d="M0 0 C17.49 0 34.98 0 53 0 C53 2.31 53 4.62 53 7 C46.73 7 40.46 7 34 7 C34 8.98 34 10.96 34 13 C22.78 13 11.56 13 0 13 C0 8.71 0 4.42 0 0 Z " fill="currentColor" transform="translate(204,37)"/>
<path d="M0 0 C15.51 0 31.02 0 47 0 C47 2.31 47 4.62 47 7 C44.69 7 42.38 7 40 7 C40 8.98 40 10.96 40 13 C26.8 13 13.6 13 0 13 C0 8.71 0 4.42 0 0 Z " fill="currentColor" transform="translate(459,79)"/>
<path d="M0 0 C15.51 0 31.02 0 47 0 C47 2.31 47 4.62 47 7 C45.02 7 43.04 7 41 7 C41 8.98 41 10.96 41 13 C29.78 13 18.56 13 7 13 C7 11.02 7 9.04 7 7 C4.69 7 2.38 7 0 7 C0 4.69 0 2.38 0 0 Z " fill="currentColor" transform="translate(269,79)"/>
<path d="M0 0 C15.51 0 31.02 0 47 0 C47 2.31 47 4.62 47 7 C44.69 7 42.38 7 40 7 C40 8.98 40 10.96 40 13 C29.11 13 18.22 13 7 13 C7 11.02 7 9.04 7 7 C4.69 7 2.38 7 0 7 C0 4.69 0 2.38 0 0 Z " fill="currentColor" transform="translate(73,79)"/>
<path d="M0 0 C17.49 0 34.98 0 53 0 C53 2.31 53 4.62 53 7 C42.44 7 31.88 7 21 7 C21 8.98 21 10.96 21 13 C14.07 13 7.14 13 0 13 C0 8.71 0 4.42 0 0 Z " fill="currentColor" transform="translate(387,37)"/>
<path d="M0 0 C17.49 0 34.98 0 53 0 C53 2.31 53 4.62 53 7 C42.11 7 31.22 7 20 7 C20 8.98 20 10.96 20 13 C13.4 13 6.8 13 0 13 C0 8.71 0 4.42 0 0 Z " fill="currentColor" transform="translate(8,37)"/>
<path d="M0 0 C15.18 0 30.36 0 46 0 C46 4.29 46 8.58 46 13 C37.09 13 28.18 13 19 13 C19 11.02 19 9.04 19 7 C12.73 7 6.46 7 0 7 C0 4.69 0 2.38 0 0 Z " fill="currentColor" transform="translate(466,65)"/>
<path d="M0 0 C11.22 0 22.44 0 34 0 C34 4.29 34 8.58 34 13 C20.8 13 7.6 13 -6 13 C-6 10.69 -6 8.38 -6 6 C-4.02 6 -2.04 6 0 6 C0 4.02 0 2.04 0 0 Z " fill="currentColor" transform="translate(570,37)"/>
<path d="M0 0 C11.22 0 22.44 0 34 0 C34 4.29 34 8.58 34 13 C20.8 13 7.6 13 -6 13 C-6 10.69 -6 8.38 -6 6 C-4.02 6 -2.04 6 0 6 C0 4.02 0 2.04 0 0 Z " fill="currentColor" transform="translate(524,37)"/>
<path d="M0 0 C11.22 0 22.44 0 34 0 C34 1.98 34 3.96 34 6 C36.31 6 38.62 6 41 6 C41 8.31 41 10.62 41 13 C29.78 13 18.56 13 7 13 C7 11.02 7 9.04 7 7 C4.69 7 2.38 7 0 7 C0 4.69 0 2.38 0 0 Z " fill="currentColor" transform="translate(210,51)"/>
<path d="M0 0 C12.54 0 25.08 0 38 0 C38 0.33 38 0.66 38 1 C31.73 1 25.46 1 19 1 C19 5.29 19 9.58 19 14 C25.27 14 31.54 14 38 14 C38 14.33 38 14.66 38 15 C31.73 15 25.46 15 19 15 C19 16.98 19 18.96 19 21 C12.73 21 6.46 21 0 21 C-1 14 -1 14 0 0 Z " fill="none" transform="translate(87,50)"/>
<path d="M0 0 C1.56047445 0.00015913 3.12095416 0.00585397 4.68139648 0.01586914 C5.91115456 0.01799156 5.91115456 0.01799156 7.16575623 0.02015686 C9.79470406 0.0257725 12.42356797 0.0383276 15.05249023 0.05102539 C16.8304838 0.05603838 18.60847869 0.06060163 20.38647461 0.06469727 C24.75434569 0.07574701 29.12215371 0.09302208 33.48999023 0.11352539 C33.48999023 0.44352539 33.48999023 0.77352539 33.48999023 1.11352539 C27.21999023 1.11352539 20.94999023 1.11352539 14.48999023 1.11352539 C14.48999023 5.40352539 14.48999023 9.69352539 14.48999023 14.11352539 C20.75999023 14.11352539 27.02999023 14.11352539 33.48999023 14.11352539 C33.48999023 14.44352539 33.48999023 14.77352539 33.48999023 15.11352539 C27.21999023 15.11352539 20.94999023 15.11352539 14.48999023 15.11352539 C14.48999023 17.09352539 14.48999023 19.07352539 14.48999023 21.11352539 C8.21999023 21.11352539 1.94999023 21.11352539 -4.51000977 21.11352539 C-4.53684413 17.80097213 -4.55676757 14.48863356 -4.57250977 11.17602539 C-4.58088867 10.23049805 -4.58926758 9.2849707 -4.59790039 8.31079102 C-4.60112305 7.41166992 -4.6043457 6.51254883 -4.60766602 5.58618164 C-4.61290283 4.75352783 -4.61813965 3.92087402 -4.62353516 3.06298828 C-4.42120925 -0.41136094 -3.59952261 0.11642053 0 0 Z " fill="none" transform="translate(287.510009765625,49.886474609375)"/>
<path d="M0 0 C8.91 0 17.82 0 27 0 C27 1.98 27 3.96 27 6 C29.31 6 31.62 6 34 6 C34 8.31 34 10.62 34 13 C22.78 13 11.56 13 0 13 C0 8.71 0 4.42 0 0 Z " fill="currentColor" transform="translate(132,37)"/>
<path d="M0 0 C10.89 0 21.78 0 33 0 C33 4.29 33 8.58 33 13 C24.09 13 15.18 13 6 13 C6 11.02 6 9.04 6 7 C4.02 7 2.04 7 0 7 C0 4.69 0 2.38 0 0 Z " fill="currentColor" transform="translate(224,65)"/>
<path d="M0 0 C10.89 0 21.78 0 33 0 C33 4.29 33 8.58 33 13 C24.09 13 15.18 13 6 13 C6 11.02 6 9.04 6 7 C4.02 7 2.04 7 0 7 C0 4.69 0 2.38 0 0 Z " fill="currentColor" transform="translate(165,65)"/>
<path d="M0 0 C6.93 0 13.86 0 21 0 C21 1.98 21 3.96 21 6 C25.29 6 29.58 6 34 6 C34 8.31 34 10.62 34 13 C22.78 13 11.56 13 0 13 C0 8.71 0 4.42 0 0 Z " fill="currentColor" transform="translate(387,51)"/>
<path d="M0 0 C15.51 0 31.02 0 47 0 C47 2.31 47 4.62 47 7 C31.49 7 15.98 7 0 7 C0 4.69 0 2.38 0 0 Z " fill="currentColor" transform="translate(210,29)"/>
<path d="M0 0 C15.51 0 31.02 0 47 0 C47 2.31 47 4.62 47 7 C31.49 7 15.98 7 0 7 C0 4.69 0 2.38 0 0 Z " fill="currentColor" transform="translate(14,29)"/>
<path d="M0 0 C15.18 0 30.36 0 46 0 C46 2.31 46 4.62 46 7 C30.82 7 15.64 7 0 7 C0 4.69 0 2.38 0 0 Z " fill="currentColor" transform="translate(394,29)"/>
<path d="M0 0 C13.2 0 26.4 0 40 0 C40 2.31 40 4.62 40 7 C26.8 7 13.6 7 0 7 C0 4.69 0 2.38 0 0 Z " fill="currentColor" transform="translate(466,29)"/>
<path d="M0 0 C6.93 0 13.86 0 21 0 C21 4.29 21 8.58 21 13 C14.07 13 7.14 13 0 13 C0 8.71 0 4.42 0 0 Z " fill="currentColor" transform="translate(583,79)"/>
<path d="M0 0 C6.93 0 13.86 0 21 0 C21 4.29 21 8.58 21 13 C14.07 13 7.14 13 0 13 C0 8.71 0 4.42 0 0 Z " fill="currentColor" transform="translate(132,79)"/>
<path d="M0 0 C6.93 0 13.86 0 21 0 C21 4.29 21 8.58 21 13 C14.07 13 7.14 13 0 13 C0 8.71 0 4.42 0 0 Z " fill="currentColor" transform="translate(583,65)"/>
<path d="M0 0 C6.93 0 13.86 0 21 0 C21 4.29 21 8.58 21 13 C14.07 13 7.14 13 0 13 C0 8.71 0 4.42 0 0 Z " fill="currentColor" transform="translate(387,65)"/>
<path d="M0 0 C6.93 0 13.86 0 21 0 C21 4.29 21 8.58 21 13 C14.07 13 7.14 13 0 13 C0 8.71 0 4.42 0 0 Z " fill="currentColor" transform="translate(328,65)"/>
<path d="M0 0 C6.93 0 13.86 0 21 0 C21 4.29 21 8.58 21 13 C14.07 13 7.14 13 0 13 C0 8.71 0 4.42 0 0 Z " fill="currentColor" transform="translate(302,65)"/>
<path d="M0 0 C6.93 0 13.86 0 21 0 C21 4.29 21 8.58 21 13 C14.07 13 7.14 13 0 13 C0 8.71 0 4.42 0 0 Z " fill="currentColor" transform="translate(132,65)"/>
<path d="M0 0 C6.93 0 13.86 0 21 0 C21 4.29 21 8.58 21 13 C14.07 13 7.14 13 0 13 C0 8.71 0 4.42 0 0 Z " fill="currentColor" transform="translate(583,51)"/>
<path d="M0 0 C6.93 0 13.86 0 21 0 C21 4.29 21 8.58 21 13 C14.07 13 7.14 13 0 13 C0 8.71 0 4.42 0 0 Z " fill="currentColor" transform="translate(328,51)"/>
<path d="M0 0 C6.93 0 13.86 0 21 0 C21 4.29 21 8.58 21 13 C14.07 13 7.14 13 0 13 C0 8.71 0 4.42 0 0 Z " fill="currentColor" transform="translate(302,51)"/>
<path d="M0 0 C6.93 0 13.86 0 21 0 C21 4.29 21 8.58 21 13 C14.07 13 7.14 13 0 13 C0 8.71 0 4.42 0 0 Z " fill="currentColor" transform="translate(328,37)"/>
<path d="M0 0 C6.6 0 13.2 0 20 0 C20 4.29 20 8.58 20 13 C13.4 13 6.8 13 0 13 C0 8.71 0 4.42 0 0 Z " fill="currentColor" transform="translate(538,79)"/>
<path d="M0 0 C6.6 0 13.2 0 20 0 C20 4.29 20 8.58 20 13 C13.4 13 6.8 13 0 13 C0 8.71 0 4.42 0 0 Z " fill="currentColor" transform="translate(178,79)"/>
<path d="M0 0 C6.6 0 13.2 0 20 0 C20 4.29 20 8.58 20 13 C13.4 13 6.8 13 0 13 C0 8.71 0 4.42 0 0 Z " fill="currentColor" transform="translate(538,65)"/>
<path d="M0 0 C6.6 0 13.2 0 20 0 C20 4.29 20 8.58 20 13 C13.4 13 6.8 13 0 13 C0 8.71 0 4.42 0 0 Z " fill="currentColor" transform="translate(8,65)"/>
<path d="M0 0 C6.6 0 13.2 0 20 0 C20 4.29 20 8.58 20 13 C13.4 13 6.8 13 0 13 C0 8.71 0 4.42 0 0 Z " fill="currentColor" transform="translate(538,51)"/>
<path d="M0 0 C6.6 0 13.2 0 20 0 C20 4.29 20 8.58 20 13 C13.4 13 6.8 13 0 13 C0 8.71 0 4.42 0 0 Z " fill="currentColor" transform="translate(263,51)"/>
<path d="M0 0 C6.6 0 13.2 0 20 0 C20 4.29 20 8.58 20 13 C13.4 13 6.8 13 0 13 C0 8.71 0 4.42 0 0 Z " fill="currentColor" transform="translate(106,51)"/>
<path d="M0 0 C6.6 0 13.2 0 20 0 C20 4.29 20 8.58 20 13 C13.4 13 6.8 13 0 13 C0 8.71 0 4.42 0 0 Z " fill="currentColor" transform="translate(67,51)"/>
<path d="M0 0 C6.6 0 13.2 0 20 0 C20 4.29 20 8.58 20 13 C13.4 13 6.8 13 0 13 C0 8.71 0 4.42 0 0 Z " fill="currentColor" transform="translate(8,51)"/>
<path d="M0 0 C6.6 0 13.2 0 20 0 C20 4.29 20 8.58 20 13 C13.4 13 6.8 13 0 13 C0 8.71 0 4.42 0 0 Z " fill="currentColor" transform="translate(178,37)"/>
<path d="M0 0 C11.22 0 22.44 0 34 0 C34 2.31 34 4.62 34 7 C22.78 7 11.56 7 0 7 C0 4.69 0 2.38 0 0 Z " fill="currentColor" transform="translate(276,29)"/>
<path d="M0 0 C10.89 0 21.78 0 33 0 C33 2.31 33 4.62 33 7 C22.11 7 11.22 7 0 7 C0 4.69 0 2.38 0 0 Z " fill="currentColor" transform="translate(80,29)"/>
<path d="M0 0 C4.95 0 9.9 0 15 0 C15 4.29 15 8.58 15 13 C10.05 13 5.1 13 0 13 C0 8.71 0 4.42 0 0 Z " fill="currentColor" transform="translate(367,79)"/>
<path d="M0 0 C8.91 0 17.82 0 27 0 C27 2.31 27 4.62 27 7 C18.09 7 9.18 7 0 7 C0 4.69 0 2.38 0 0 Z " fill="currentColor" transform="translate(577,29)"/>
<path d="M0 0 C8.91 0 17.82 0 27 0 C27 2.31 27 4.62 27 7 C18.09 7 9.18 7 0 7 C0 4.69 0 2.38 0 0 Z " fill="currentColor" transform="translate(531,29)"/>
<path d="M0 0 C6.93 0 13.86 0 21 0 C21 2.31 21 4.62 21 7 C14.07 7 7.14 7 0 7 C0 4.69 0 2.38 0 0 Z " fill="currentColor" transform="translate(328,29)"/>
<path d="M0 0 C6.93 0 13.86 0 21 0 C21 2.31 21 4.62 21 7 C14.07 7 7.14 7 0 7 C0 4.69 0 2.38 0 0 Z " fill="currentColor" transform="translate(132,29)"/>
<path d="M0 0 C4.62 0 9.24 0 14 0 C14 2.31 14 4.62 14 7 C12.02 7 10.04 7 8 7 C8 8.98 8 10.96 8 13 C5.36 13 2.72 13 0 13 C0 8.71 0 4.42 0 0 Z " fill="currentColor" transform="translate(243,79)"/>
<path d="M0 0 C2.64 0 5.28 0 8 0 C8 4.29 8 8.58 8 13 C3.38 13 -1.24 13 -6 13 C-6 10.69 -6 8.38 -6 6 C-4.02 6 -2.04 6 0 6 C0 4.02 0 2.04 0 0 Z " fill="currentColor" transform="translate(269,37)"/>
<path d="M0 0 C6.6 0 13.2 0 20 0 C20 2.31 20 4.62 20 7 C13.4 7 6.8 7 0 7 C0 4.69 0 2.38 0 0 Z " fill="currentColor" transform="translate(178,29)"/>
<path d="M0 0 C4.29 0 8.58 0 13 0 C13 4.29 13 8.58 13 13 C11.02 13 9.04 13 7 13 C7 11.02 7 9.04 7 7 C4.69 7 2.38 7 0 7 C0 4.69 0 2.38 0 0 Z " fill="currentColor" transform="translate(269,79)"/>
<path d="M0 0 C1.98 0 3.96 0 6 0 C6 1.98 6 3.96 6 6 C8.31 6 10.62 6 13 6 C13 8.31 13 10.62 13 13 C8.71 13 4.42 13 0 13 C0 8.71 0 4.42 0 0 Z " fill="currentColor" transform="translate(238,51)"/>
<path d="M0 0 C1.98 0 3.96 0 6 0 C6 1.98 6 3.96 6 6 C8.31 6 10.62 6 13 6 C13 8.31 13 10.62 13 13 C8.71 13 4.42 13 0 13 C0 8.71 0 4.42 0 0 Z " fill="currentColor" transform="translate(310,37)"/>
<path d="M0 0 C1.98 0 3.96 0 6 0 C6 1.98 6 3.96 6 6 C8.31 6 10.62 6 13 6 C13 8.31 13 10.62 13 13 C8.71 13 4.42 13 0 13 C0 8.71 0 4.42 0 0 Z " fill="currentColor" transform="translate(153,37)"/>
<path d="M0 0 C4.95 0 9.9 0 15 0 C15 2.31 15 4.62 15 7 C10.05 7 5.1 7 0 7 C0 4.69 0 2.38 0 0 Z " fill="currentColor" transform="translate(295,29)"/>
<path d="M0 0 C2.64 0 5.28 0 8 0 C8 4.29 8 8.58 8 13 C5.36 13 2.72 13 0 13 C0 8.71 0 4.42 0 0 Z " fill="currentColor" transform="translate(583,79)"/>
<path d="M0 0 C2.64 0 5.28 0 8 0 C8 4.29 8 8.58 8 13 C5.36 13 2.72 13 0 13 C0 8.71 0 4.42 0 0 Z " fill="currentColor" transform="translate(459,79)"/>
<path d="M0 0 C2.64 0 5.28 0 8 0 C8 4.29 8 8.58 8 13 C5.36 13 2.72 13 0 13 C0 8.71 0 4.42 0 0 Z " fill="currentColor" transform="translate(328,79)"/>
<path d="M0 0 C2.64 0 5.28 0 8 0 C8 4.29 8 8.58 8 13 C5.36 13 2.72 13 0 13 C0 8.71 0 4.42 0 0 Z " fill="currentColor" transform="translate(53,79)"/>
<path d="M0 0 C2.64 0 5.28 0 8 0 C8 4.29 8 8.58 8 13 C5.36 13 2.72 13 0 13 C0 8.71 0 4.42 0 0 Z " fill="currentColor" transform="translate(583,65)"/>
<path d="M0 0 C2.64 0 5.28 0 8 0 C8 4.29 8 8.58 8 13 C5.36 13 2.72 13 0 13 C0 8.71 0 4.42 0 0 Z " fill="currentColor" transform="translate(583,51)"/>
<path d="M0 0 C2.64 0 5.28 0 8 0 C8 4.29 8 8.58 8 13 C5.36 13 2.72 13 0 13 C0 8.71 0 4.42 0 0 Z " fill="currentColor" transform="translate(145,51)"/>
<path d="M0 0 C2.64 0 5.28 0 8 0 C8 4.29 8 8.58 8 13 C5.36 13 2.72 13 0 13 C0 8.71 0 4.42 0 0 Z " fill="currentColor" transform="translate(596,37)"/>
<path d="M0 0 C2.64 0 5.28 0 8 0 C8 4.29 8 8.58 8 13 C5.36 13 2.72 13 0 13 C0 8.71 0 4.42 0 0 Z " fill="currentColor" transform="translate(230,37)"/>
<path d="M0 0 C2.31 0 4.62 0 7 0 C7 4.29 7 8.58 7 13 C4.69 13 2.38 13 0 13 C0 8.71 0 4.42 0 0 Z " fill="currentColor" transform="translate(375,79)"/>
<path d="M0 0 C2.31 0 4.62 0 7 0 C7 4.29 7 8.58 7 13 C4.69 13 2.38 13 0 13 C0 8.71 0 4.42 0 0 Z " fill="currentColor" transform="translate(146,79)"/>
<path d="M0 0 C2.31 0 4.62 0 7 0 C7 4.29 7 8.58 7 13 C4.69 13 2.38 13 0 13 C0 8.71 0 4.42 0 0 Z " fill="currentColor" transform="translate(401,65)"/>
<path d="M0 0 C2.31 0 4.62 0 7 0 C7 4.29 7 8.58 7 13 C4.69 13 2.38 13 0 13 C0 8.71 0 4.42 0 0 Z " fill="currentColor" transform="translate(316,65)"/>
<path d="M0 0 C2.31 0 4.62 0 7 0 C7 4.29 7 8.58 7 13 C4.69 13 2.38 13 0 13 C0 8.71 0 4.42 0 0 Z " fill="currentColor" transform="translate(146,65)"/>
<path d="M0 0 C2.31 0 4.62 0 7 0 C7 4.29 7 8.58 7 13 C4.69 13 2.38 13 0 13 C0 8.71 0 4.42 0 0 Z " fill="currentColor" transform="translate(316,51)"/>
<path d="M0 0 C1.98 0 3.96 0 6 0 C6 4.29 6 8.58 6 13 C4.02 13 2.04 13 0 13 C0 8.71 0 4.42 0 0 Z " fill="currentColor" transform="translate(395,65)"/>
<path d="M0 0 C1.98 0 3.96 0 6 0 C6 4.29 6 8.58 6 13 C4.02 13 2.04 13 0 13 C0 8.71 0 4.42 0 0 Z " fill="currentColor" transform="translate(310,51)"/>
<path d="M0 0 C1.65 0 3.3 0 5 0 C5 4.29 5 8.58 5 13 C3.35 13 1.7 13 0 13 C0 8.71 0 4.42 0 0 Z " fill="currentColor" transform="translate(591,79)"/>
<path d="M0 0 C1.65 0 3.3 0 5 0 C5 4.29 5 8.58 5 13 C3.35 13 1.7 13 0 13 C0 8.71 0 4.42 0 0 Z " fill="currentColor" transform="translate(591,65)"/>
<path d="M0 0 C1.65 0 3.3 0 5 0 C5 4.29 5 8.58 5 13 C3.35 13 1.7 13 0 13 C0 8.71 0 4.42 0 0 Z " fill="currentColor" transform="translate(336,65)"/>
<path d="M0 0 C1.65 0 3.3 0 5 0 C5 4.29 5 8.58 5 13 C3.35 13 1.7 13 0 13 C0 8.71 0 4.42 0 0 Z " fill="currentColor" transform="translate(591,51)"/>
<path d="M0 0 C1.65 0 3.3 0 5 0 C5 4.29 5 8.58 5 13 C3.35 13 1.7 13 0 13 C0 8.71 0 4.42 0 0 Z " fill="currentColor" transform="translate(467,51)"/>
<path d="M0 0 C1.65 0 3.3 0 5 0 C5 4.29 5 8.58 5 13 C3.35 13 1.7 13 0 13 C0 8.71 0 4.42 0 0 Z " fill="currentColor" transform="translate(395,51)"/>
<path d="M0 0 C1.65 0 3.3 0 5 0 C5 4.29 5 8.58 5 13 C3.35 13 1.7 13 0 13 C0 8.71 0 4.42 0 0 Z " fill="currentColor" transform="translate(336,51)"/>
<path d="M0 0 C1.65 0 3.3 0 5 0 C5 4.29 5 8.58 5 13 C3.35 13 1.7 13 0 13 C0 8.71 0 4.42 0 0 Z " fill="currentColor" transform="translate(467,37)"/>
<path d="M0 0 C1.65 0 3.3 0 5 0 C5 4.29 5 8.58 5 13 C3.35 13 1.7 13 0 13 C0 8.71 0 4.42 0 0 Z " fill="currentColor" transform="translate(395,37)"/>
<path d="M0 0 C1.65 0 3.3 0 5 0 C5 4.29 5 8.58 5 13 C3.35 13 1.7 13 0 13 C0 8.71 0 4.42 0 0 Z " fill="currentColor" transform="translate(336,37)"/>
<path d="M0 0 C2.64 0 5.28 0 8 0 C8 2.31 8 4.62 8 7 C5.69 7 3.38 7 1 7 C1 8.98 1 10.96 1 13 C0.67 13 0.34 13 0 13 C0 8.71 0 4.42 0 0 Z " fill="currentColor" transform="translate(498,79)"/>
<path d="M0 0 C2.64 0 5.28 0 8 0 C8 4.29 8 8.58 8 13 C7.67 13 7.34 13 7 13 C7 11.02 7 9.04 7 7 C4.69 7 2.38 7 0 7 C0 4.69 0 2.38 0 0 Z " fill="currentColor" transform="translate(387,79)"/>
<path d="M0 0 C2.64 0 5.28 0 8 0 C8 4.29 8 8.58 8 13 C7.67 13 7.34 13 7 13 C7 11.02 7 9.04 7 7 C4.69 7 2.38 7 0 7 C0 4.69 0 2.38 0 0 Z " fill="currentColor" transform="translate(269,79)"/>
<path d="M0 0 C2.64 0 5.28 0 8 0 C8 2.31 8 4.62 8 7 C5.69 7 3.38 7 1 7 C1 8.98 1 10.96 1 13 C0.67 13 0.34 13 0 13 C0 8.71 0 4.42 0 0 Z " fill="currentColor" transform="translate(112,79)"/>
<path d="M0 0 C2.64 0 5.28 0 8 0 C8 4.29 8 8.58 8 13 C7.67 13 7.34 13 7 13 C7 11.02 7 9.04 7 7 C4.69 7 2.38 7 0 7 C0 4.69 0 2.38 0 0 Z " fill="currentColor" transform="translate(73,79)"/>
<path d="M0 0 C0.33 0 0.66 0 1 0 C1 1.98 1 3.96 1 6 C3.31 6 5.62 6 8 6 C8 8.31 8 10.62 8 13 C5.36 13 2.72 13 0 13 C0 8.71 0 4.42 0 0 Z " fill="currentColor" transform="translate(243,51)"/>
<path d="M0 0 C2.64 0 5.28 0 8 0 C8 4.29 8 8.58 8 13 C7.67 13 7.34 13 7 13 C7 11.02 7 9.04 7 7 C4.69 7 2.38 7 0 7 C0 4.69 0 2.38 0 0 Z " fill="currentColor" transform="translate(210,51)"/>
<path d="M0 0 C0.33 0 0.66 0 1 0 C1 1.98 1 3.96 1 6 C3.31 6 5.62 6 8 6 C8 8.31 8 10.62 8 13 C5.36 13 2.72 13 0 13 C0 8.71 0 4.42 0 0 Z " fill="currentColor" transform="translate(315,37)"/>
<path d="M0 0 C0.33 0 0.66 0 1 0 C1 1.98 1 3.96 1 6 C3.31 6 5.62 6 8 6 C8 8.31 8 10.62 8 13 C5.36 13 2.72 13 0 13 C0 8.71 0 4.42 0 0 Z " fill="currentColor" transform="translate(158,37)"/>
<path d="M0 0 C2.64 0 5.28 0 8 0 C8 2.31 8 4.62 8 7 C5.36 7 2.72 7 0 7 C0 4.69 0 2.38 0 0 Z " fill="currentColor" transform="translate(53,37)"/>
<path d="M0 0 C2.64 0 5.28 0 8 0 C8 2.31 8 4.62 8 7 C5.36 7 2.72 7 0 7 C0 4.69 0 2.38 0 0 Z " fill="currentColor" transform="translate(596,29)"/>
<path d="M0 0 C2.64 0 5.28 0 8 0 C8 2.31 8 4.62 8 7 C5.36 7 2.72 7 0 7 C0 4.69 0 2.38 0 0 Z " fill="currentColor" transform="translate(531,29)"/>
<path d="M0 0 C2.64 0 5.28 0 8 0 C8 2.31 8 4.62 8 7 C5.36 7 2.72 7 0 7 C0 4.69 0 2.38 0 0 Z " fill="currentColor" transform="translate(498,29)"/>
<path d="M0 0 C2.64 0 5.28 0 8 0 C8 2.31 8 4.62 8 7 C5.36 7 2.72 7 0 7 C0 4.69 0 2.38 0 0 Z " fill="currentColor" transform="translate(210,29)"/>
<path d="M0 0 C2.64 0 5.28 0 8 0 C8 2.31 8 4.62 8 7 C5.36 7 2.72 7 0 7 C0 4.69 0 2.38 0 0 Z " fill="currentColor" transform="translate(53,29)"/>
<path d="M0 0 C2.64 0 5.28 0 8 0 C8 2.31 8 4.62 8 7 C5.36 7 2.72 7 0 7 C0 4.69 0 2.38 0 0 Z " fill="currentColor" transform="translate(14,29)"/>
<path d="M0 0 C2.31 0 4.62 0 7 0 C7 4.29 7 8.58 7 13 C6.67 13 6.34 13 6 13 C6 11.02 6 9.04 6 7 C4.02 7 2.04 7 0 7 C0 4.69 0 2.38 0 0 Z " fill="currentColor" transform="translate(8,79)"/>
<path d="M0 0 C2.31 0 4.62 0 7 0 C7 4.29 7 8.58 7 13 C6.67 13 6.34 13 6 13 C6 11.02 6 9.04 6 7 C4.02 7 2.04 7 0 7 C0 4.69 0 2.38 0 0 Z " fill="currentColor" transform="translate(224,65)"/>
<path d="M0 0 C2.31 0 4.62 0 7 0 C7 4.29 7 8.58 7 13 C6.67 13 6.34 13 6 13 C6 11.02 6 9.04 6 7 C4.02 7 2.04 7 0 7 C0 4.69 0 2.38 0 0 Z " fill="currentColor" transform="translate(165,65)"/>
<path d="M0 0 C0.66 0 1.32 0 2 0 C2.23509196 4.81938524 1.45184478 8.46298506 0 13 C-1.98 13 -3.96 13 -6 13 C-6 10.69 -6 8.38 -6 6 C-4.02 6 -2.04 6 0 6 C0 4.02 0 2.04 0 0 Z " fill="currentColor" transform="translate(570,37)"/>
<path d="M0 0 C0.66 0 1.32 0 2 0 C2.23509196 4.81938524 1.45184478 8.46298506 0 13 C-1.98 13 -3.96 13 -6 13 C-6 10.69 -6 8.38 -6 6 C-4.02 6 -2.04 6 0 6 C0 4.02 0 2.04 0 0 Z " fill="currentColor" transform="translate(524,37)"/>
<path d="M0 0 C0.66 0 1.32 0 2 0 C2.23509196 4.81938524 1.45184478 8.46298506 0 13 C-1.98 13 -3.96 13 -6 13 C-6 10.69 -6 8.38 -6 6 C-4.02 6 -2.04 6 0 6 C0 4.02 0 2.04 0 0 Z " fill="currentColor" transform="translate(269,37)"/>
<path d="M0 0 C2.31 0 4.62 0 7 0 C7 2.31 7 4.62 7 7 C4.69 7 2.38 7 0 7 C0 4.69 0 2.38 0 0 Z " fill="currentColor" transform="translate(303,29)"/>
<path d="M0 0 C2.31 0 4.62 0 7 0 C7 2.31 7 4.62 7 7 C4.69 7 2.38 7 0 7 C0 4.69 0 2.38 0 0 Z " fill="currentColor" transform="translate(146,29)"/>
<path d="M0 0 C1.98 0 3.96 0 6 0 C6 4.29 6 8.58 6 13 C5.67 13 5.34 13 5 13 C5 11.02 5 9.04 5 7 C3.35 7 1.7 7 0 7 C0 4.69 0 2.38 0 0 Z " fill="currentColor" transform="translate(480,65)"/>
<path d="M0 0 C1.98 0 3.96 0 6 0 C6 2.31 6 4.62 6 7 C4.02 7 2.04 7 0 7 C0 4.69 0 2.38 0 0 Z " fill="currentColor" transform="translate(480,57)"/>
<path d="M0 0 C1.98 0 3.96 0 6 0 C6 2.31 6 4.62 6 7 C4.02 7 2.04 7 0 7 C0 4.69 0 2.38 0 0 Z " fill="currentColor" transform="translate(480,37)"/>
<path d="M0 0 C1.65 0 3.3 0 5 0 C5 2.31 5 4.62 5 7 C3.35 7 1.7 7 0 7 C0 4.69 0 2.38 0 0 Z " fill="currentColor" transform="translate(408,57)"/>
<path d="M0 0 C1.65 0 3.3 0 5 0 C5 2.31 5 4.62 5 7 C3.35 7 1.7 7 0 7 C0 4.69 0 2.38 0 0 Z " fill="currentColor" transform="translate(153,51)"/>
<path d="M0 0 C1.65 0 3.3 0 5 0 C5 2.31 5 4.62 5 7 C3.35 7 1.7 7 0 7 C0 4.69 0 2.38 0 0 Z " fill="currentColor" transform="translate(336,29)"/>
</svg>
